<svg width="500" height="84" viewBox="0 0 500 84" fill="none" xmlns="http://www.w3.org/2000/svg">
<path d="M2.64205 71V36.0909H17.0625C19.6761 36.0909 21.9318 36.6023 23.8295 37.625C25.7386 38.6364 27.2102 40.0511 28.2443 41.8693C29.2784 43.6761 29.7955 45.7784 29.7955 48.1761C29.7955 50.5852 29.267 52.6932 28.2102 54.5C27.1648 56.2955 25.6705 57.6875 23.7273 58.6761C21.7841 59.6648 19.4773 60.1591 16.8068 60.1591H7.90909V53.5114H15.2386C16.5114 53.5114 17.5739 53.2898 18.4261 52.8466C19.2898 52.4034 19.9432 51.7841 20.3864 50.9886C20.8295 50.1818 21.0511 49.2443 21.0511 48.1761C21.0511 47.0966 20.8295 46.1648 20.3864 45.3807C19.9432 44.5852 19.2898 43.9716 18.4261 43.5398C17.5625 43.108 16.5 42.892 15.2386 42.892H11.0795V71H2.64205ZM33.9545 71V44.8182H42.0511V49.5909H42.3239C42.8011 47.8636 43.5795 46.5795 44.6591 45.7386C45.7386 44.8864 46.9943 44.4602 48.4261 44.4602C48.8125 44.4602 49.2102 44.4886 49.6193 44.5455C50.0284 44.5909 50.4091 44.6648 50.7614 44.767V52.0114C50.3636 51.875 49.8409 51.767 49.1932 51.6875C48.5568 51.608 47.9886 51.5682 47.4886 51.5682C46.5 51.5682 45.608 51.7898 44.8125 52.233C44.0284 52.6648 43.4091 53.2727 42.9545 54.0568C42.5114 54.8295 42.2898 55.7386 42.2898 56.7841V71H33.9545ZM65.0199 71.4943C62.2699 71.4943 59.9063 70.9318 57.929 69.8068C55.9631 68.6705 54.446 67.0909 53.3778 65.0682C52.321 63.0341 51.7926 60.6761 51.7926 57.9943C51.7926 55.3011 52.321 52.9432 53.3778 50.9205C54.446 48.8864 55.9631 47.3068 57.929 46.1818C59.9063 45.0455 62.2699 44.4773 65.0199 44.4773C67.7699 44.4773 70.1278 45.0455 72.0938 46.1818C74.071 47.3068 75.5881 48.8864 76.6449 50.9205C77.7131 52.9432 78.2472 55.3011 78.2472 57.9943C78.2472 60.6761 77.7131 63.0341 76.6449 65.0682C75.5881 67.0909 74.071 68.6705 72.0938 69.8068C70.1278 70.9318 67.7699 71.4943 65.0199 71.4943ZM65.071 65.2045C66.071 65.2045 66.9176 64.8977 67.6108 64.2841C68.304 63.6705 68.8324 62.8182 69.196 61.7273C69.571 60.6364 69.7585 59.375 69.7585 57.9432C69.7585 56.4886 69.571 55.2159 69.196 54.125C68.8324 53.0341 68.304 52.1818 67.6108 51.5682C66.9176 50.9545 66.071 50.6477 65.071 50.6477C64.0369 50.6477 63.1619 50.9545 62.446 51.5682C61.7415 52.1818 61.2017 53.0341 60.8267 54.125C60.4631 55.2159 60.2812 56.4886 60.2812 57.9432C60.2812 59.375 60.4631 60.6364 60.8267 61.7273C61.2017 62.8182 61.7415 63.6705 62.446 64.2841C63.1619 64.8977 64.0369 65.2045 65.071 65.2045ZM82.517 44.8182H90.8523V72.0909C90.8523 74.25 90.4091 75.9659 89.5227 77.2386C88.6477 78.5114 87.4091 79.4261 85.8068 79.983C84.2045 80.5398 82.3125 80.8182 80.1307 80.8182C79.8352 80.8182 79.5568 80.8125 79.2955 80.8011C79.0341 80.7898 78.75 80.7784 78.4432 80.767V74.4432C78.6477 74.4659 78.8295 74.483 78.9886 74.4943C79.1477 74.5057 79.3068 74.5114 79.4659 74.5114C80.6136 74.5114 81.4091 74.2955 81.8523 73.8636C82.2955 73.4432 82.517 72.7955 82.517 71.9205V44.8182ZM86.6761 41.767C85.5057 41.767 84.5 41.3807 83.6591 40.608C82.8182 39.8239 82.3977 38.8807 82.3977 37.7784C82.3977 36.6875 82.8182 35.7557 83.6591 34.983C84.5 34.1989 85.5057 33.8068 86.6761 33.8068C87.858 33.8068 88.8636 34.1989 89.6932 34.983C90.5341 35.7557 90.9545 36.6875 90.9545 37.7784C90.9545 38.8807 90.5341 39.8239 89.6932 40.608C88.8636 41.3807 87.858 41.767 86.6761 41.767ZM108.396 71.4943C105.658 71.4943 103.294 70.9545 101.305 69.875C99.3281 68.7841 97.8054 67.233 96.7372 65.2216C95.6804 63.1989 95.152 60.7955 95.152 58.0114C95.152 55.3068 95.6861 52.9432 96.7543 50.9205C97.8224 48.8864 99.3281 47.3068 101.271 46.1818C103.214 45.0455 105.504 44.4773 108.141 44.4773C110.004 44.4773 111.709 44.767 113.254 45.3466C114.8 45.9261 116.135 46.7841 117.26 47.9205C118.385 49.0568 119.26 50.4602 119.885 52.1307C120.51 53.7898 120.822 55.6932 120.822 57.8409V59.9205H98.0668V55.0795H113.067C113.055 54.1932 112.845 53.4034 112.436 52.7102C112.027 52.017 111.464 51.4773 110.749 51.0909C110.044 50.6932 109.232 50.4943 108.311 50.4943C107.379 50.4943 106.544 50.7045 105.805 51.125C105.067 51.5341 104.482 52.0966 104.05 52.8125C103.618 53.517 103.391 54.3182 103.368 55.2159V60.142C103.368 61.2102 103.578 62.1477 103.999 62.9545C104.419 63.75 105.016 64.3693 105.788 64.8125C106.561 65.2557 107.482 65.4773 108.55 65.4773C109.288 65.4773 109.959 65.375 110.561 65.1705C111.163 64.9659 111.68 64.6648 112.112 64.267C112.544 63.8693 112.868 63.3807 113.084 62.8011L120.737 63.0227C120.419 64.7386 119.72 66.233 118.641 67.5057C117.572 68.767 116.169 69.75 114.43 70.4545C112.692 71.1477 110.68 71.4943 108.396 71.4943ZM139.858 44.8182V50.9545H123.341V44.8182H139.858ZM126.801 38.5455H135.136V62.767C135.136 63.2784 135.216 63.6932 135.375 64.0114C135.545 64.3182 135.79 64.5398 136.108 64.6761C136.426 64.8011 136.807 64.8636 137.25 64.8636C137.568 64.8636 137.903 64.8352 138.256 64.7784C138.619 64.7102 138.892 64.6534 139.074 64.608L140.335 70.625C139.938 70.7386 139.375 70.8807 138.648 71.0511C137.932 71.2216 137.074 71.3295 136.074 71.375C134.119 71.4659 132.443 71.2386 131.045 70.6932C129.659 70.1364 128.597 69.2727 127.858 68.1023C127.131 66.9318 126.778 65.4602 126.801 63.6875V38.5455ZM156.051 71.4943C153.301 71.4943 150.938 70.9318 148.96 69.8068C146.994 68.6705 145.477 67.0909 144.409 65.0682C143.352 63.0341 142.824 60.6761 142.824 57.9943C142.824 55.3011 143.352 52.9432 144.409 50.9205C145.477 48.8864 146.994 47.3068 148.96 46.1818C150.938 45.0455 153.301 44.4773 156.051 44.4773C158.801 44.4773 161.159 45.0455 163.125 46.1818C165.102 47.3068 166.619 48.8864 167.676 50.9205C168.744 52.9432 169.278 55.3011 169.278 57.9943C169.278 60.6761 168.744 63.0341 167.676 65.0682C166.619 67.0909 165.102 68.6705 163.125 69.8068C161.159 70.9318 158.801 71.4943 156.051 71.4943ZM156.102 65.2045C157.102 65.2045 157.949 64.8977 158.642 64.2841C159.335 63.6705 159.864 62.8182 160.227 61.7273C160.602 60.6364 160.79 59.375 160.79 57.9432C160.79 56.4886 160.602 55.2159 160.227 54.125C159.864 53.0341 159.335 52.1818 158.642 51.5682C157.949 50.9545 157.102 50.6477 156.102 50.6477C155.068 50.6477 154.193 50.9545 153.477 51.5682C152.773 52.1818 152.233 53.0341 151.858 54.125C151.494 55.2159 151.312 56.4886 151.312 57.9432C151.312 59.375 151.494 60.6364 151.858 61.7273C152.233 62.8182 152.773 63.6705 153.477 64.2841C154.193 64.8977 155.068 65.2045 156.102 65.2045ZM202.73 46.5568C202.616 45.3068 202.111 44.3352 201.213 43.642C200.327 42.9375 199.06 42.5852 197.412 42.5852C196.321 42.5852 195.412 42.7273 194.685 43.0114C193.957 43.2955 193.412 43.6875 193.048 44.1875C192.685 44.6761 192.497 45.2386 192.486 45.875C192.463 46.3977 192.565 46.858 192.793 47.2557C193.031 47.6534 193.372 48.0057 193.815 48.3125C194.27 48.608 194.815 48.8693 195.452 49.0966C196.088 49.3239 196.804 49.5227 197.599 49.6932L200.599 50.375C202.327 50.75 203.849 51.25 205.168 51.875C206.497 52.5 207.611 53.2443 208.509 54.108C209.418 54.9716 210.105 55.9659 210.571 57.0909C211.037 58.2159 211.276 59.4773 211.287 60.875C211.276 63.0795 210.719 64.9716 209.616 66.5511C208.514 68.1307 206.929 69.3409 204.861 70.1818C202.804 71.0227 200.321 71.4432 197.412 71.4432C194.491 71.4432 191.946 71.0057 189.776 70.1307C187.605 69.2557 185.918 67.9261 184.713 66.142C183.509 64.358 182.889 62.1023 182.855 59.375H190.935C191.003 60.5 191.304 61.4375 191.838 62.1875C192.372 62.9375 193.105 63.5057 194.037 63.892C194.98 64.2784 196.071 64.4716 197.31 64.4716C198.446 64.4716 199.412 64.3182 200.207 64.0114C201.014 63.7045 201.634 63.2784 202.065 62.733C202.497 62.1875 202.719 61.5625 202.73 60.858C202.719 60.1989 202.514 59.6364 202.116 59.1705C201.719 58.6932 201.105 58.2841 200.276 57.9432C199.457 57.5909 198.412 57.267 197.139 56.9716L193.491 56.1193C190.469 55.4261 188.088 54.3068 186.349 52.7614C184.611 51.2045 183.747 49.1023 183.759 46.4545C183.747 44.2955 184.327 42.4034 185.497 40.7784C186.668 39.1534 188.287 37.8864 190.355 36.9773C192.423 36.0682 194.781 35.6136 197.429 35.6136C200.134 35.6136 202.48 36.0739 204.469 36.9943C206.469 37.9034 208.02 39.1818 209.122 40.8295C210.224 42.4773 210.787 44.3864 210.81 46.5568H202.73ZM227.787 71.4943C225.048 71.4943 222.685 70.9545 220.696 69.875C218.719 68.7841 217.196 67.233 216.128 65.2216C215.071 63.1989 214.543 60.7955 214.543 58.0114C214.543 55.3068 215.077 52.9432 216.145 50.9205C217.213 48.8864 218.719 47.3068 220.662 46.1818C222.605 45.0455 224.895 44.4773 227.531 44.4773C229.395 44.4773 231.099 44.767 232.645 45.3466C234.19 45.9261 235.526 46.7841 236.651 47.9205C237.776 49.0568 238.651 50.4602 239.276 52.1307C239.901 53.7898 240.213 55.6932 240.213 57.8409V59.9205H217.457V55.0795H232.457C232.446 54.1932 232.236 53.4034 231.827 52.7102C231.418 52.017 230.855 51.4773 230.139 51.0909C229.435 50.6932 228.622 50.4943 227.702 50.4943C226.77 50.4943 225.935 50.7045 225.196 51.125C224.457 51.5341 223.872 52.0966 223.44 52.8125C223.009 53.517 222.781 54.3182 222.759 55.2159V60.142C222.759 61.2102 222.969 62.1477 223.389 62.9545C223.81 63.75 224.406 64.3693 225.179 64.8125C225.952 65.2557 226.872 65.4773 227.94 65.4773C228.679 65.4773 229.349 65.375 229.952 65.1705C230.554 64.9659 231.071 64.6648 231.503 64.267C231.935 63.8693 232.259 63.3807 232.474 62.8011L240.128 63.0227C239.81 64.7386 239.111 66.233 238.031 67.5057C236.963 68.767 235.56 69.75 233.821 70.4545C232.082 71.1477 230.071 71.4943 227.787 71.4943ZM256.692 71.4943C253.93 71.4943 251.561 70.9261 249.584 69.7898C247.618 68.6534 246.107 67.0739 245.05 65.0511C243.993 63.017 243.464 60.6648 243.464 57.9943C243.464 55.3125 243.993 52.9602 245.05 50.9375C246.118 48.9034 247.635 47.3182 249.601 46.1818C251.578 45.0455 253.936 44.4773 256.675 44.4773C259.095 44.4773 261.203 44.9148 262.999 45.7898C264.805 46.6648 266.214 47.9034 267.226 49.5057C268.249 51.0966 268.788 52.9659 268.845 55.1136H261.055C260.896 53.7727 260.442 52.7216 259.692 51.9602C258.953 51.1989 257.987 50.8182 256.794 50.8182C255.828 50.8182 254.982 51.0909 254.254 51.6364C253.527 52.1705 252.959 52.9659 252.55 54.0227C252.152 55.0682 251.953 56.3636 251.953 57.9091C251.953 59.4545 252.152 60.7614 252.55 61.8295C252.959 62.8864 253.527 63.6875 254.254 64.233C254.982 64.767 255.828 65.0341 256.794 65.0341C257.567 65.0341 258.249 64.8693 258.839 64.5398C259.442 64.2102 259.936 63.7273 260.322 63.0909C260.709 62.4432 260.953 61.6591 261.055 60.7386H268.845C268.766 62.8977 268.226 64.7841 267.226 66.3977C266.237 68.0114 264.845 69.267 263.05 70.1648C261.266 71.0511 259.146 71.4943 256.692 71.4943ZM280.491 71.4432C278.821 71.4432 277.338 71.1648 276.043 70.608C274.759 70.0398 273.741 69.1875 272.991 68.0511C272.253 66.9034 271.884 65.4659 271.884 63.7386C271.884 62.2841 272.139 61.0568 272.651 60.0568C273.162 59.0568 273.866 58.2443 274.764 57.6193C275.662 56.9943 276.696 56.5227 277.866 56.2045C279.037 55.875 280.287 55.6534 281.616 55.5398C283.105 55.4034 284.304 55.2614 285.213 55.1136C286.122 54.9545 286.781 54.733 287.19 54.4489C287.611 54.1534 287.821 53.7386 287.821 53.2045V53.1193C287.821 52.2443 287.52 51.5682 286.918 51.0909C286.315 50.6136 285.503 50.375 284.48 50.375C283.378 50.375 282.491 50.6136 281.821 51.0909C281.151 51.5682 280.724 52.2273 280.543 53.0682L272.855 52.7955C273.082 51.2045 273.668 49.7841 274.611 48.5341C275.565 47.2727 276.872 46.2841 278.531 45.5682C280.202 44.8409 282.207 44.4773 284.548 44.4773C286.219 44.4773 287.759 44.6761 289.168 45.0739C290.577 45.4602 291.804 46.0284 292.849 46.7784C293.895 47.517 294.702 48.4261 295.27 49.5057C295.849 50.5852 296.139 51.8182 296.139 53.2045V71H288.298V67.3523H288.094C287.628 68.2386 287.031 68.9886 286.304 69.6023C285.588 70.2159 284.741 70.6761 283.764 70.983C282.798 71.2898 281.707 71.4432 280.491 71.4432ZM283.065 65.9886C283.963 65.9886 284.77 65.8068 285.486 65.4432C286.213 65.0795 286.793 64.5795 287.224 63.9432C287.656 63.2955 287.872 62.5455 287.872 61.6932V59.2045C287.634 59.3295 287.344 59.4432 287.003 59.5455C286.673 59.6477 286.31 59.7443 285.912 59.8352C285.514 59.9261 285.105 60.0057 284.685 60.0739C284.264 60.142 283.861 60.2045 283.474 60.2614C282.69 60.3864 282.02 60.5795 281.463 60.8409C280.918 61.1023 280.497 61.4432 280.202 61.8636C279.918 62.2727 279.776 62.7614 279.776 63.3295C279.776 64.1932 280.082 64.8523 280.696 65.3068C281.321 65.7614 282.111 65.9886 283.065 65.9886ZM343.236 48.7386H334.713C334.599 47.8636 334.366 47.0739 334.014 46.3693C333.662 45.6648 333.196 45.0625 332.616 44.5625C332.037 44.0625 331.349 43.6818 330.554 43.4205C329.77 43.1477 328.901 43.0114 327.946 43.0114C326.253 43.0114 324.793 43.4261 323.565 44.2557C322.349 45.0852 321.412 46.2841 320.753 47.8523C320.105 49.4205 319.781 51.3182 319.781 53.5455C319.781 55.8636 320.111 57.8068 320.77 59.375C321.44 60.9318 322.378 62.108 323.582 62.9034C324.798 63.6875 326.236 64.0795 327.895 64.0795C328.827 64.0795 329.673 63.9602 330.435 63.7216C331.207 63.483 331.884 63.1364 332.463 62.6818C333.054 62.2159 333.537 61.6534 333.912 60.9943C334.298 60.3239 334.565 59.5682 334.713 58.7273L343.236 58.7784C343.088 60.3239 342.639 61.8466 341.889 63.3466C341.151 64.8466 340.134 66.2159 338.838 67.4545C337.543 68.6818 335.963 69.6591 334.099 70.3864C332.247 71.1136 330.122 71.4773 327.724 71.4773C324.565 71.4773 321.736 70.7841 319.236 69.3977C316.747 68 314.781 65.9659 313.338 63.2955C311.895 60.625 311.173 57.375 311.173 53.5455C311.173 49.7045 311.906 46.4489 313.372 43.7784C314.838 41.108 316.821 39.0795 319.321 37.6932C321.821 36.3068 324.622 35.6136 327.724 35.6136C329.838 35.6136 331.793 35.9091 333.588 36.5C335.384 37.0795 336.963 37.9318 338.327 39.0568C339.69 40.1705 340.798 41.5398 341.651 43.1648C342.503 44.7898 343.031 46.6477 343.236 48.7386ZM355.445 71.4432C353.774 71.4432 352.291 71.1648 350.996 70.608C349.712 70.0398 348.695 69.1875 347.945 68.0511C347.206 66.9034 346.837 65.4659 346.837 63.7386C346.837 62.2841 347.092 61.0568 347.604 60.0568C348.115 59.0568 348.82 58.2443 349.717 57.6193C350.615 56.9943 351.649 56.5227 352.82 56.2045C353.99 55.875 355.24 55.6534 356.57 55.5398C358.058 55.4034 359.257 55.2614 360.166 55.1136C361.075 54.9545 361.734 54.733 362.143 54.4489C362.564 54.1534 362.774 53.7386 362.774 53.2045V53.1193C362.774 52.2443 362.473 51.5682 361.871 51.0909C361.268 50.6136 360.456 50.375 359.433 50.375C358.331 50.375 357.445 50.6136 356.774 51.0909C356.104 51.5682 355.678 52.2273 355.496 53.0682L347.808 52.7955C348.036 51.2045 348.621 49.7841 349.564 48.5341C350.518 47.2727 351.825 46.2841 353.484 45.5682C355.155 44.8409 357.161 44.4773 359.501 44.4773C361.172 44.4773 362.712 44.6761 364.121 45.0739C365.53 45.4602 366.757 46.0284 367.803 46.7784C368.848 47.517 369.655 48.4261 370.223 49.5057C370.803 50.5852 371.092 51.8182 371.092 53.2045V71H363.251V67.3523H363.047C362.581 68.2386 361.984 68.9886 361.257 69.6023C360.541 70.2159 359.695 70.6761 358.717 70.983C357.751 71.2898 356.661 71.4432 355.445 71.4432ZM358.018 65.9886C358.916 65.9886 359.723 65.8068 360.439 65.4432C361.166 65.0795 361.746 64.5795 362.178 63.9432C362.609 63.2955 362.825 62.5455 362.825 61.6932V59.2045C362.587 59.3295 362.297 59.4432 361.956 59.5455C361.626 59.6477 361.263 59.7443 360.865 59.8352C360.467 59.9261 360.058 60.0057 359.638 60.0739C359.217 60.142 358.814 60.2045 358.428 60.2614C357.643 60.3864 356.973 60.5795 356.416 60.8409C355.871 61.1023 355.45 61.4432 355.155 61.8636C354.871 62.2727 354.729 62.7614 354.729 63.3295C354.729 64.1932 355.036 64.8523 355.649 65.3068C356.274 65.7614 357.064 65.9886 358.018 65.9886ZM399.047 52.8125L391.393 53.017C391.314 52.4716 391.098 51.9886 390.746 51.5682C390.393 51.1364 389.933 50.8011 389.365 50.5625C388.808 50.3125 388.161 50.1875 387.422 50.1875C386.456 50.1875 385.632 50.3807 384.95 50.767C384.28 51.1534 383.95 51.6761 383.962 52.3352C383.95 52.8466 384.155 53.2898 384.575 53.6648C385.007 54.0398 385.774 54.3409 386.876 54.5682L391.922 55.5227C394.536 56.0227 396.479 56.8523 397.751 58.0114C399.036 59.1705 399.683 60.7045 399.695 62.6136C399.683 64.4091 399.149 65.9716 398.092 67.3011C397.047 68.6307 395.615 69.6648 393.797 70.4034C391.979 71.1307 389.899 71.4943 387.558 71.4943C383.82 71.4943 380.871 70.7273 378.712 69.1932C376.564 67.6477 375.337 65.5795 375.03 62.9886L383.263 62.7841C383.445 63.7386 383.916 64.4659 384.678 64.9659C385.439 65.4659 386.411 65.7159 387.592 65.7159C388.661 65.7159 389.53 65.517 390.2 65.1193C390.871 64.7216 391.212 64.1932 391.223 63.5341C391.212 62.9432 390.95 62.4716 390.439 62.1193C389.928 61.7557 389.126 61.4716 388.036 61.267L383.467 60.3977C380.842 59.9205 378.888 59.0398 377.604 57.7557C376.32 56.4602 375.683 54.8125 375.695 52.8125C375.683 51.0625 376.149 49.5682 377.092 48.3295C378.036 47.0795 379.376 46.125 381.115 45.4659C382.854 44.8068 384.905 44.4773 387.268 44.4773C390.814 44.4773 393.609 45.2216 395.655 46.7102C397.7 48.1875 398.831 50.2216 399.047 52.8125ZM411.179 71.4432C409.509 71.4432 408.026 71.1648 406.73 70.608C405.446 70.0398 404.429 69.1875 403.679 68.0511C402.94 66.9034 402.571 65.4659 402.571 63.7386C402.571 62.2841 402.827 61.0568 403.338 60.0568C403.849 59.0568 404.554 58.2443 405.452 57.6193C406.349 56.9943 407.384 56.5227 408.554 56.2045C409.724 55.875 410.974 55.6534 412.304 55.5398C413.793 55.4034 414.991 55.2614 415.901 55.1136C416.81 54.9545 417.469 54.733 417.878 54.4489C418.298 54.1534 418.509 53.7386 418.509 53.2045V53.1193C418.509 52.2443 418.207 51.5682 417.605 51.0909C417.003 50.6136 416.19 50.375 415.168 50.375C414.065 50.375 413.179 50.6136 412.509 51.0909C411.838 51.5682 411.412 52.2273 411.23 53.0682L403.543 52.7955C403.77 51.2045 404.355 49.7841 405.298 48.5341C406.253 47.2727 407.56 46.2841 409.219 45.5682C410.889 44.8409 412.895 44.4773 415.236 44.4773C416.906 44.4773 418.446 44.6761 419.855 45.0739C421.264 45.4602 422.491 46.0284 423.537 46.7784C424.582 47.517 425.389 48.4261 425.957 49.5057C426.537 50.5852 426.827 51.8182 426.827 53.2045V71H418.986V67.3523H418.781C418.315 68.2386 417.719 68.9886 416.991 69.6023C416.276 70.2159 415.429 70.6761 414.452 70.983C413.486 71.2898 412.395 71.4432 411.179 71.4432ZM413.753 65.9886C414.651 65.9886 415.457 65.8068 416.173 65.4432C416.901 65.0795 417.48 64.5795 417.912 63.9432C418.344 63.2955 418.56 62.5455 418.56 61.6932V59.2045C418.321 59.3295 418.031 59.4432 417.69 59.5455C417.361 59.6477 416.997 59.7443 416.599 59.8352C416.202 59.9261 415.793 60.0057 415.372 60.0739C414.952 60.142 414.548 60.2045 414.162 60.2614C413.378 60.3864 412.707 60.5795 412.151 60.8409C411.605 61.1023 411.185 61.4432 410.889 61.8636C410.605 62.2727 410.463 62.7614 410.463 63.3295C410.463 64.1932 410.77 64.8523 411.384 65.3068C412.009 65.7614 412.798 65.9886 413.753 65.9886ZM440.259 36.0909V71H431.923V36.0909H440.259Z" fill="white"/>
<rect x="0.5" y="0.5" width="15" height="15" rx="3.5" fill="#18181B" stroke="#27272A"/>
<rect x="20.5" y="0.5" width="15" height="15" rx="3.5" fill="#4C1D95" stroke="#6D28D9"/>
<rect x="40.5" y="0.5" width="15" height="15" rx="3.5" fill="#5B21B6" stroke="#7C3AED"/>
<rect x="60.5" y="0.5" width="15" height="15" rx="3.5" fill="#6D28D9" stroke="#8B5CF6"/>
<rect x="80.5" y="0.5" width="15" height="15" rx="3.5" fill="#7C3AED" stroke="#A78BFA"/>
<rect x="100.5" y="0.5" width="15" height="15" rx="3.5" fill="#8B5CF6" stroke="#C4B5FD"/>
</svg>
